<svg xmlns="http://www.w3.org/2000/svg" width="28" height="28" fill="none"><path fill="#0B7572" fill-rule="evenodd" d="M14 0C6.262 0 0 6.258 0 14c0 2.92.89 5.62 2.472 7.94a.7.7 0 0 1 .087.602L1.137 27.3l4.66-1.608a.7.7 0 0 1 .601.077A13.916 13.916 0 0 0 14 28c7.742 0 14-6.258 14-14S21.742 0 14 0ZM8.269 6.103l2.548 4.211-1.06 1.05a.7.7 0 0 0-.11.842c1.619 2.804 3.537 4.985 6.223 6.169a.7.7 0 0 0 .777-.142l1.126-1.127 4.113 2.57c-.455 1.026-1.05 1.636-1.728 1.991-.787.412-1.748.49-2.844.263-2.193-.455-4.841-2.178-7-4.386-2.158-2.208-3.829-4.893-4.255-7.077-.213-1.092-.118-2.032.285-2.778.347-.642.937-1.192 1.925-1.586Z" clip-rule="evenodd"/></svg>