<svg xmlns="http://www.w3.org/2000/svg" width="28" height="18" fill="none"><path fill="#0B7572" d="M2.049 0A2.03 2.03 0 0 0 .96.32l12.122 10.255c.555.47 1.303.47 1.857 0L27.039.32A2.03 2.03 0 0 0 25.952 0H2.05ZM.117 1.377A2.047 2.047 0 0 0 0 2.049v13.658c0 .412.124.79.33 1.11L9.007 8.91.117 1.376Zm27.766 0-8.868 7.522 8.654 7.918c.207-.32.331-.698.331-1.11V2.05c0-.237-.044-.461-.117-.672ZM17.97 9.796l-2.156 1.824a2.799 2.799 0 0 1-3.617 0l-2.145-1.814L1.44 17.66c.192.06.395.096.608.096H25.95c.213 0 .416-.036.608-.096l-8.59-7.864Z"/></svg>