<svg xmlns="http://www.w3.org/2000/svg" width="28" height="28" fill="none"><path stroke="#fff" d="M27.067 13.91c0 7.409-5.951 13.408-13.283 13.408S.5 21.32.5 13.91C.5 6.5 6.452.5 13.784.5c7.332 0 13.283 6 13.283 13.41Z"/><path fill="#fff" fill-rule="evenodd" d="M10.66 6.048c.845-.04 1.114-.048 3.268-.048 2.153 0 2.423.01 3.268.048.844.039 1.42.175 1.925.372a3.897 3.897 0 0 1 1.404.923c.404.4.715.882.914 1.416.196.51.33 1.091.37 1.942.038.855.047 1.127.047 3.299 0 2.173-.01 2.445-.048 3.298-.038.851-.173 1.433-.369 1.942a3.928 3.928 0 0 1-.914 1.418 3.884 3.884 0 0 1-1.404.922c-.504.198-1.08.333-1.924.372-.846.04-1.116.048-3.27.048-2.153 0-2.422-.01-3.268-.048-.843-.039-1.42-.175-1.924-.372a3.886 3.886 0 0 1-1.405-.922 3.926 3.926 0 0 1-.914-1.417c-.195-.51-.33-1.091-.368-1.942C6.008 16.444 6 16.172 6 14c0-2.173.01-2.445.048-3.297.038-.853.173-1.435.368-1.944.2-.533.512-1.017.915-1.416a3.883 3.883 0 0 1 1.403-.923c.505-.197 1.081-.333 1.925-.372Zm6.471 1.44c-.836-.039-1.086-.047-3.203-.047s-2.368.008-3.204.047c-.773.036-1.192.166-1.472.276a2.46 2.46 0 0 0-.912.597 2.484 2.484 0 0 0-.592.92c-.11.283-.238.706-.273 1.486-.039.844-.047 1.097-.047 3.233s.008 2.39.047 3.233c.035.78.164 1.203.273 1.485.127.348.33.662.592.92.256.266.568.47.912.598.28.11.699.24 1.472.276.836.038 1.086.046 3.204.046 2.117 0 2.367-.008 3.203-.046.774-.036 1.193-.166 1.473-.276a2.46 2.46 0 0 0 .912-.598c.263-.258.465-.573.592-.92.109-.282.238-.705.273-1.485.038-.844.046-1.097.046-3.233s-.008-2.39-.046-3.233c-.035-.78-.164-1.203-.273-1.486a2.486 2.486 0 0 0-.592-.92 2.458 2.458 0 0 0-.912-.597c-.28-.11-.7-.24-1.473-.276Zm-4.216 8.978c.566.238 1.196.27 1.782.09a2.646 2.646 0 0 0 1.433-1.07 2.687 2.687 0 0 0-.332-3.373 2.64 2.64 0 0 0-2.13-.769 2.63 2.63 0 0 0-1.939 1.174 2.683 2.683 0 0 0-.332 2.257c.114.377.309.725.571 1.018.263.292.586.522.947.673Zm-1.868-5.374a4.071 4.071 0 0 1 2.88-1.204 4.043 4.043 0 0 1 2.882 1.204A4.114 4.114 0 0 1 18.003 14a4.146 4.146 0 0 1-1.194 2.908 4.056 4.056 0 0 1-2.881 1.204 4.056 4.056 0 0 1-2.882-1.204A4.13 4.13 0 0 1 9.854 14c0-1.09.43-2.136 1.194-2.908Zm7.86-.592a.973.973 0 0 0 .231-1.072.974.974 0 0 0-.53-.536.956.956 0 0 0-1.064.234.977.977 0 0 0 .02 1.355.96.96 0 0 0 1.343.02Z" clip-rule="evenodd"/></svg>