<svg xmlns="http://www.w3.org/2000/svg" width="28" height="28" fill="none"><path fill="#0B7572" d="M27.009 16.337c-.024-.044-.01.05 0 0 .144-.788.22-1.595.22-2.402 0-1.79-.35-3.525-1.04-5.16a13.203 13.203 0 0 0-2.834-4.212A13.166 13.166 0 0 0 14.008.682c-.841 0-1.684.079-2.504.237h-.006A7.822 7.822 0 0 0 7.828 0C5.736 0 3.77.816 2.292 2.298A7.806 7.806 0 0 0 0 7.847c0 1.334.342 2.645.985 3.803-.13.751-.2 1.519-.2 2.285 0 1.79.35 3.525 1.04 5.159a13.191 13.191 0 0 0 2.833 4.213 13.148 13.148 0 0 0 4.203 2.84 13.086 13.086 0 0 0 5.147 1.042c.777 0 1.555-.07 2.315-.206A7.804 7.804 0 0 0 20.174 28a7.76 7.76 0 0 0 5.534-2.298A7.8 7.8 0 0 0 28 20.155a7.863 7.863 0 0 0-.991-3.818ZM14.06 22.052c-4.697 0-6.798-2.315-6.798-4.05 0-.89.655-1.514 1.558-1.514 2.01 0 1.49 2.894 5.24 2.894 1.92 0 2.98-1.045 2.98-2.115 0-.643-.316-1.356-1.58-1.668l-4.178-1.046c-3.365-.846-3.975-2.669-3.975-4.383 0-3.559 3.342-4.895 6.481-4.895 2.892 0 6.3 1.602 6.3 3.737 0 .915-.79 1.447-1.693 1.447-1.715 0-1.4-2.38-4.855-2.38-1.715 0-2.665.778-2.665 1.892 0 1.112 1.355 1.467 2.53 1.735l3.093.688c3.387.757 4.246 2.74 4.246 4.607 0 2.891-2.214 5.05-6.684 5.05Z"/></svg>