<svg xmlns="http://www.w3.org/2000/svg" width="24" height="32" fill="none"><path fill="#0B7572" d="M11.002 6.7 7.638.871C6.782-.61 5.3.246 5.3.246L3.225 1.444 8.3 10.235l2.075-1.198c1.482-.856.627-2.338.627-2.338Zm8.622 24.837-5.075-8.792c-1.254.723-2.403-.613-3.46-2.046a32.943 32.943 0 0 1-3.477-6.023c-.713-1.632-1.25-3.322-.043-4.02l-5.075-8.79C.705 2.899-2.853 8.397 4.22 20.649c7.095 12.29 13.615 11.92 15.403 10.888Zm3.433-3.958-3.364-5.827c-.856-1.482-2.338-.626-2.338-.626l-2.075 1.198 5.075 8.791 2.075-1.198c1.483-.856.627-2.338.627-2.338Z"/></svg>