<svg width="14" height="14" fill="none" xmlns="http://www.w3.org/2000/svg"><path d="M13.667 5.733c.066-.333-.2-.733-.534-.733l-3.8-.533L7.6 1a.52.52 0 0 0-.267-.267C7 .533 6.6.667 6.4 1L4.733 4.467.933 5c-.2 0-.333.067-.4.2a.644.644 0 0 0 0 .933L3.267 8.8 2.6 12.6c0 .133 0 .267.067.4.2.333.6.467.933.267l3.4-1.8 3.4 1.8c.067.066.2.066.333.066h.134c.333-.066.6-.4.533-.8l-.667-3.8 2.734-2.666c.133-.067.2-.2.2-.334ZM9.533 8.067c-.133.133-.2.4-.2.6l.467 2.8-2.533-1.334c-.067-.066-.2-.066-.334-.066V2.8L8.2 5.333c.067.2.267.334.533.334l2.8.4-2 2Z" fill="#FFCF55"/></svg>